<svg width="34" height="30" viewBox="0 0 34 30" fill="none" xmlns="http://www.w3.org/2000/svg">
<path d="M7 2L2 7.25V25.625C2 26.3212 2.35119 26.9889 2.97631 27.4812C3.60143 27.9734 4.44928 28.25 5.33333 28.25H28.6667C29.5507 28.25 30.3986 27.9734 31.0237 27.4812C31.6488 26.9889 32 26.3212 32 25.625V7.25L27 2H7Z" stroke="black" stroke-width="3" stroke-linecap="round" stroke-linejoin="round"/>
<path d="M2 7H32" stroke="black" stroke-width="3" stroke-linecap="round" stroke-linejoin="round"/>
<path d="M23.25 12C23.25 13.6576 22.5915 15.2473 21.4194 16.4194C20.2473 17.5915 18.6576 18.25 17 18.25C15.3424 18.25 13.7527 17.5915 12.5806 16.4194C11.4085 15.2473 10.75 13.6576 10.75 12" stroke="black" stroke-width="3" stroke-linecap="round" stroke-linejoin="round"/>
</svg>
